<mxfile host="Electron" agent="Mozilla/5.0 (Windows NT 10.0; Win64; x64) AppleWebKit/537.36 (KHTML, like Gecko) draw.io/26.2.2 Chrome/134.0.6998.178 Electron/35.1.2 Safari/537.36" version="26.2.2">
  <diagram name="Page-1" id="pHsj81JDXbPfScXX6-pG">
    <mxGraphModel dx="960" dy="813" grid="1" gridSize="10" guides="1" tooltips="1" connect="1" arrows="1" fold="1" page="1" pageScale="1" pageWidth="1100" pageHeight="850" math="0" shadow="0">
      <root>
        <mxCell id="0" />
        <mxCell id="1" parent="0" />
        <mxCell id="r0nfMCIN16NJr1YLxsdd-14" value="" style="edgeStyle=orthogonalEdgeStyle;rounded=0;orthogonalLoop=1;jettySize=auto;html=1;" edge="1" parent="1" source="r0nfMCIN16NJr1YLxsdd-1" target="r0nfMCIN16NJr1YLxsdd-8">
          <mxGeometry relative="1" as="geometry" />
        </mxCell>
        <mxCell id="r0nfMCIN16NJr1YLxsdd-1" value="Incubation" style="rounded=1;whiteSpace=wrap;html=1;fillColor=#dae8fc;strokeColor=#6c8ebf;" vertex="1" parent="1">
          <mxGeometry x="200" y="200" width="120" height="40" as="geometry" />
        </mxCell>
        <mxCell id="r0nfMCIN16NJr1YLxsdd-2" value="Full Size, Real Money Operation" style="rounded=1;whiteSpace=wrap;html=1;fillColor=#d5e8d4;strokeColor=#82b366;" vertex="1" parent="1">
          <mxGeometry x="360" y="280" width="120" height="40" as="geometry" />
        </mxCell>
        <mxCell id="r0nfMCIN16NJr1YLxsdd-13" value="" style="edgeStyle=orthogonalEdgeStyle;rounded=0;orthogonalLoop=1;jettySize=auto;html=1;" edge="1" parent="1" source="r0nfMCIN16NJr1YLxsdd-3" target="r0nfMCIN16NJr1YLxsdd-1">
          <mxGeometry relative="1" as="geometry" />
        </mxCell>
        <mxCell id="r0nfMCIN16NJr1YLxsdd-3" value="Monte Carlo Simulation" style="rounded=1;whiteSpace=wrap;html=1;fillColor=#dae8fc;strokeColor=#6c8ebf;" vertex="1" parent="1">
          <mxGeometry x="40" y="200" width="120" height="40" as="geometry" />
        </mxCell>
        <mxCell id="r0nfMCIN16NJr1YLxsdd-12" value="" style="edgeStyle=orthogonalEdgeStyle;rounded=0;orthogonalLoop=1;jettySize=auto;html=1;" edge="1" parent="1" source="r0nfMCIN16NJr1YLxsdd-4" target="r0nfMCIN16NJr1YLxsdd-3">
          <mxGeometry relative="1" as="geometry" />
        </mxCell>
        <mxCell id="r0nfMCIN16NJr1YLxsdd-4" value="Walforward Testing&lt;div&gt;&amp;amp; Optimization&lt;/div&gt;" style="rounded=1;whiteSpace=wrap;html=1;fillColor=#dae8fc;strokeColor=#6c8ebf;" vertex="1" parent="1">
          <mxGeometry x="40" y="120" width="120" height="40" as="geometry" />
        </mxCell>
        <mxCell id="r0nfMCIN16NJr1YLxsdd-11" value="" style="edgeStyle=orthogonalEdgeStyle;rounded=0;orthogonalLoop=1;jettySize=auto;html=1;" edge="1" parent="1" source="r0nfMCIN16NJr1YLxsdd-5" target="r0nfMCIN16NJr1YLxsdd-4">
          <mxGeometry relative="1" as="geometry" />
        </mxCell>
        <mxCell id="r0nfMCIN16NJr1YLxsdd-5" value="Limited Feasibility Testing" style="rounded=1;whiteSpace=wrap;html=1;fillColor=#dae8fc;strokeColor=#6c8ebf;" vertex="1" parent="1">
          <mxGeometry x="200" y="120" width="120" height="40" as="geometry" />
        </mxCell>
        <mxCell id="r0nfMCIN16NJr1YLxsdd-10" value="" style="edgeStyle=orthogonalEdgeStyle;rounded=0;orthogonalLoop=1;jettySize=auto;html=1;" edge="1" parent="1" source="r0nfMCIN16NJr1YLxsdd-6" target="r0nfMCIN16NJr1YLxsdd-5">
          <mxGeometry relative="1" as="geometry" />
        </mxCell>
        <mxCell id="r0nfMCIN16NJr1YLxsdd-6" value="Trading Idea" style="rounded=1;whiteSpace=wrap;html=1;fillColor=#d5e8d4;strokeColor=#82b366;" vertex="1" parent="1">
          <mxGeometry x="200" y="40" width="120" height="40" as="geometry" />
        </mxCell>
        <mxCell id="r0nfMCIN16NJr1YLxsdd-9" value="" style="edgeStyle=orthogonalEdgeStyle;rounded=0;orthogonalLoop=1;jettySize=auto;html=1;" edge="1" parent="1" source="r0nfMCIN16NJr1YLxsdd-7" target="r0nfMCIN16NJr1YLxsdd-6">
          <mxGeometry relative="1" as="geometry" />
        </mxCell>
        <mxCell id="r0nfMCIN16NJr1YLxsdd-7" value="Performance&amp;nbsp;&lt;div&gt;Goals &amp;amp; Objectives&lt;/div&gt;" style="rounded=1;whiteSpace=wrap;html=1;fillColor=#fff2cc;strokeColor=#d6b656;" vertex="1" parent="1">
          <mxGeometry x="40" y="40" width="120" height="40" as="geometry" />
        </mxCell>
        <mxCell id="r0nfMCIN16NJr1YLxsdd-15" value="" style="edgeStyle=orthogonalEdgeStyle;rounded=0;orthogonalLoop=1;jettySize=auto;html=1;" edge="1" parent="1" source="r0nfMCIN16NJr1YLxsdd-8" target="r0nfMCIN16NJr1YLxsdd-2">
          <mxGeometry relative="1" as="geometry" />
        </mxCell>
        <mxCell id="r0nfMCIN16NJr1YLxsdd-8" value="Diversification, Position Sizing" style="rounded=1;whiteSpace=wrap;html=1;fillColor=#d5e8d4;strokeColor=#82b366;" vertex="1" parent="1">
          <mxGeometry x="200" y="280" width="120" height="40" as="geometry" />
        </mxCell>
      </root>
    </mxGraphModel>
  </diagram>
</mxfile>
